<?xml version="1.0" standalone="no"?>
<!DOCTYPE svg PUBLIC "-//W3C//DTD SVG 20010904//EN"
 "http://www.w3.org/TR/2001/REC-SVG-20010904/DTD/svg10.dtd">
<svg version="1.0" xmlns="http://www.w3.org/2000/svg"
 width="1024.000000pt" height="1024.000000pt" viewBox="0 0 1024.000000 1024.000000"
 preserveAspectRatio="xMidYMid meet">
<metadata>
Created by potrace 1.14, written by Peter Selinger 2001-2017
</metadata>
<g transform="translate(0.000000,1024.000000) scale(0.100000,-0.100000)"
fill="#000000" stroke="none">
<path d="M3042 9399 c-33 -18 -75 -46 -92 -64 l-32 -33 90 -101 c280 -312 518
-654 673 -965 129 -259 184 -463 177 -658 -3 -94 -4 -99 -23 -93 -41 14 -374
17 -457 6 -295 -42 -537 -130 -1071 -387 -364 -176 -473 -223 -642 -279 -192
-64 -283 -79 -460 -79 -90 0 -167 5 -194 13 -23 7 -45 10 -48 8 -11 -12 139
-121 227 -166 145 -74 302 -118 493 -137 37 -3 67 -7 67 -9 0 -1 -16 -36 -34
-77 -44 -95 -72 -195 -81 -291 l-7 -75 58 4 c146 9 255 12 252 5 -2 -3 -31
-60 -65 -126 -189 -370 -278 -695 -290 -1071 -6 -197 2 -298 43 -501 29 -147
59 -234 131 -378 181 -361 507 -730 1063 -1205 246 -210 761 -587 1170 -856
500 -328 1189 -730 1585 -924 217 -106 447 -155 695 -147 369 12 702 150 1007
417 179 156 302 325 449 617 275 547 578 1406 748 2118 244 1026 288 1773 140
2358 -165 652 -479 1140 -919 1430 -191 126 -488 249 -707 294 l-88 17 36 37
36 37 -59 49 c-71 59 -190 122 -300 158 l-82 27 60 80 c76 103 123 186 159
287 33 91 60 227 60 305 l0 51 -39 -59 c-56 -86 -173 -199 -276 -268 -178
-119 -343 -189 -775 -327 -319 -103 -428 -140 -578 -200 -336 -134 -597 -317
-758 -533 l-21 -28 -40 43 c-74 80 -144 197 -322 540 -271 522 -389 704 -602
931 -104 112 -249 236 -275 236 -12 0 -49 -14 -82 -31z m4023 -1701 c37 -32
104 -153 123 -220 10 -38 10 -38 -19 -38 -55 0 -200 62 -246 106 -38 35 -43
46 -43 83 0 96 109 137 185 69z m-908 -597 c49 -23 84 -78 119 -187 31 -97 31
-114 -1 -114 -33 0 -174 71 -218 110 -79 69 -73 165 13 199 35 14 39 13 87 -8z
m1703 -147 c41 -35 56 -67 80 -166 26 -107 26 -138 2 -138 -11 0 -61 26 -111
58 -96 60 -151 121 -151 168 0 89 110 137 180 78z m-2691 -245 c46 -16 97 -89
126 -181 31 -99 32 -128 4 -128 -33 0 -216 99 -243 131 -52 61 -39 146 27 174
40 17 46 18 86 4z m-841 -115 c56 -39 66 -131 29 -269 -29 -104 -43 -105 -110
-9 l-49 71 25 65 c14 35 32 85 39 111 13 51 28 58 66 31z m2814 -160 c37 -36
60 -79 87 -168 26 -85 27 -116 3 -116 -24 0 -174 73 -217 105 -37 29 -65 80
-65 120 0 18 12 39 35 62 33 33 39 35 81 30 32 -3 55 -13 76 -33z m-4247 -158
c8 -40 -6 -75 -44 -114 -35 -34 -163 -116 -200 -127 l-24 -7 6 74 c4 41 9 81
12 89 3 8 38 31 78 51 39 21 88 48 107 62 40 28 56 21 65 -28z m3476 -249 c62
-42 89 -105 115 -264 10 -62 -10 -64 -99 -13 -153 90 -200 149 -178 222 13 43
58 78 102 78 14 0 41 -10 60 -23z m1826 -219 c13 -6 32 -31 44 -55 19 -39 21
-55 15 -126 -7 -82 -20 -154 -29 -164 -21 -20 -127 92 -174 185 -28 55 -29 87
-3 129 29 49 87 60 147 31z m-4965 -108 c34 -26 50 -91 37 -150 -10 -48 -53
-165 -69 -190 -17 -27 -43 1 -94 103 -40 79 -50 108 -50 149 0 44 4 54 32 79
40 36 105 40 144 9z m2196 -5 c45 -38 55 -96 35 -210 -19 -112 -36 -149 -61
-134 -19 12 -100 116 -131 169 -11 20 -23 58 -25 84 -5 45 -2 52 29 83 43 43
107 47 153 8z m-982 -78 c31 -28 37 -42 41 -84 6 -55 -19 -188 -43 -236 -12
-23 -18 -26 -34 -17 -26 14 -129 171 -142 217 -33 119 89 202 178 120z m-2110
-276 c44 -27 60 -78 44 -137 -14 -48 -134 -207 -161 -212 -21 -4 -35 35 -50
142 -13 96 -7 143 23 181 37 47 93 57 144 26z m4988 -240 c26 -26 31 -40 34
-93 4 -63 -27 -221 -48 -242 -29 -29 -170 185 -170 258 0 49 18 82 54 101 43
22 93 12 130 -24z m-1058 -250 c21 -13 38 -36 49 -66 16 -41 17 -56 7 -140
-14 -107 -25 -145 -46 -145 -29 0 -149 152 -171 216 -37 108 65 193 161 135z
m-2716 -96 c43 -22 63 -68 58 -129 -4 -54 -49 -187 -73 -220 -14 -18 -16 -19
-34 -2 -11 10 -38 55 -62 101 -53 106 -62 175 -29 218 37 47 88 59 140 32z
m1436 -104 c39 -24 59 -77 50 -133 -8 -47 -60 -185 -80 -213 -12 -17 -16 -17
-31 -5 -9 8 -37 55 -63 104 -38 75 -46 101 -46 148 -1 50 3 60 28 87 24 25 38
31 70 31 23 0 55 -9 72 -19z m3232 -86 c37 -44 31 -110 -18 -181 -50 -75 -115
-144 -134 -144 -17 0 -21 11 -37 103 -17 102 -9 190 21 222 47 50 124 49 168
0z m-5648 -412 c46 -27 70 -82 81 -185 11 -106 5 -148 -20 -148 -24 0 -181
139 -203 180 -24 46 -23 91 3 124 37 47 90 58 139 29z m4415 -215 c54 -42 65
-107 44 -252 -16 -109 -29 -115 -95 -41 -111 126 -146 223 -98 276 39 44 106
51 149 17z m-2839 -143 c65 -27 89 -129 64 -279 -16 -99 -31 -98 -121 7 -119
139 -131 231 -35 273 40 17 49 17 92 -1z m1645 -71 c36 -35 51 -100 44 -188
-7 -69 -22 -146 -30 -146 -28 0 -156 140 -181 199 -17 42 -18 100 0 123 40 53
118 59 167 12z m1929 -271 c65 -38 68 -121 8 -240 -24 -47 -51 -94 -62 -105
-19 -20 -20 -20 -33 -2 -34 46 -77 180 -77 242 -1 60 1 65 32 93 38 34 88 39
132 12z m-4214 -302 c44 -27 63 -76 74 -188 10 -110 6 -143 -19 -143 -24 0
-181 139 -203 180 -58 110 44 215 148 151z m1431 -137 c46 -30 94 -142 109
-258 8 -56 -2 -59 -79 -20 -103 53 -168 104 -188 148 -46 106 61 194 158 130z
m1398 -240 c41 -27 59 -80 63 -187 4 -110 -2 -147 -23 -147 -9 0 -52 35 -97
78 -120 114 -143 184 -82 246 39 38 90 42 139 10z m1034 -328 c62 -33 68 -116
14 -223 -20 -40 -49 -88 -65 -106 -27 -31 -28 -32 -43 -12 -21 26 -75 197 -75
236 0 91 88 146 169 105z m-2783 -194 c41 -33 65 -83 90 -178 30 -118 30 -124
1 -124 -29 0 -172 82 -214 122 -87 84 -54 198 56 198 29 0 54 -7 67 -18z
m1084 -347 c16 -8 40 -30 53 -47 27 -35 63 -145 73 -222 6 -41 5 -46 -12 -46
-33 0 -177 88 -221 134 -36 38 -43 51 -43 86 0 53 14 78 53 95 42 18 62 18 97
0z m1036 -359 c62 -62 39 -133 -78 -247 -106 -103 -118 -96 -118 74 0 109 13
152 55 185 44 35 99 30 141 -12z"/>
</g>
</svg>
